<svg width="54" height="41" viewBox="0 0 54 41" fill="currentColor" xmlns="http://www.w3.org/2000/svg">
<path d="M45.4097 3.56337C45.395 3.53456 45.3706 3.51199 45.3409 3.49969C41.9095 1.90837 38.2883 0.773632 34.5681 0.123877C34.5343 0.117526 34.4994 0.122108 34.4683 0.136971C34.4373 0.151834 34.4116 0.176222 34.395 0.206667C33.9019 1.11125 33.4543 2.0404 33.0539 2.99058C29.0437 2.37528 24.9646 2.37528 20.9544 2.99058C20.5513 2.03799 20.0965 1.1086 19.5921 0.206667C19.5748 0.176884 19.549 0.153058 19.5181 0.138291C19.4872 0.123524 19.4527 0.118501 19.4189 0.123877C15.6983 0.772268 12.0769 1.90709 8.64594 3.49978C8.61657 3.51237 8.59179 3.53385 8.57501 3.56128C1.71373 13.918 -0.165835 24.02 0.756215 33.997C0.758809 34.0214 0.766241 34.0451 0.77807 34.0666C0.789899 34.0881 0.805883 34.107 0.825072 34.1221C4.82033 37.1121 9.28908 39.3944 14.0406 40.8716C14.0741 40.8818 14.1098 40.8813 14.143 40.8703C14.1762 40.8593 14.2053 40.8383 14.2263 40.8101C15.2468 39.4066 16.1511 37.9204 16.9299 36.3666C16.9406 36.3453 16.9467 36.3219 16.9478 36.298C16.9489 36.2741 16.945 36.2503 16.9364 36.228C16.9277 36.2058 16.9145 36.1857 16.8976 36.169C16.8806 36.1523 16.8604 36.1394 16.8382 36.1311C15.4122 35.5797 14.0317 34.9149 12.7097 34.143C12.6856 34.1287 12.6655 34.1087 12.6509 34.0847C12.6364 34.0607 12.6279 34.0334 12.6263 34.0053C12.6246 33.9772 12.6299 33.9491 12.6415 33.9235C12.6531 33.8979 12.6708 33.8756 12.693 33.8586C12.9704 33.6485 13.248 33.43 13.5129 33.2093C13.5364 33.1897 13.5649 33.1772 13.5951 33.173C13.6253 33.1689 13.6561 33.1734 13.6839 33.186C22.3454 37.1815 31.7226 37.1815 40.2815 33.186C40.3094 33.1726 40.3405 33.1675 40.3711 33.1712C40.4018 33.175 40.4308 33.1875 40.4547 33.2072C40.7197 33.4279 40.9972 33.6485 41.2767 33.8586C41.299 33.8755 41.3168 33.8976 41.3286 33.9231C41.3405 33.9486 41.3459 33.9766 41.3444 34.0047C41.343 34.0329 41.3347 34.0602 41.3204 34.0843C41.306 34.1084 41.286 34.1286 41.2621 34.143C39.943 34.9214 38.5613 35.5857 37.1316 36.129C37.1094 36.1376 37.0892 36.1508 37.0724 36.1677C37.0556 36.1847 37.0425 36.205 37.034 36.2275C37.0255 36.2499 37.0218 36.2739 37.0231 36.2978C37.0244 36.3218 37.0307 36.3452 37.0416 36.3666C37.8334 37.9117 38.7363 39.3961 39.7431 40.8077C39.7635 40.8366 39.7924 40.8583 39.8258 40.8698C39.8591 40.8812 39.8951 40.8818 39.9288 40.8713C44.6888 39.3992 49.1654 37.1166 53.1657 34.1221C53.1851 34.1077 53.2014 34.0893 53.2132 34.0681C53.2251 34.0469 53.2324 34.0234 53.2345 33.9991C54.3384 22.4647 51.3864 12.4454 45.4097 3.56337ZM18.2234 27.9221C15.6157 27.9221 13.467 25.5032 13.467 22.5326C13.467 19.562 15.574 17.143 18.2234 17.143C20.8935 17.143 23.0214 19.5831 22.9798 22.5325C22.9798 25.5032 20.8726 27.9221 18.2234 27.9221ZM35.8093 27.9221C33.2017 27.9221 31.053 25.5032 31.053 22.5326C31.053 19.562 33.16 17.143 35.8093 17.143C38.4796 17.143 40.6074 19.5831 40.5658 22.5325C40.5658 25.5032 38.4796 27.9221 35.8093 27.9221Z" fill="currentColor"/>
</svg>
