<svg width="48" height="48" viewBox="0 0 48 48" fill="currentColor" xmlns="http://www.w3.org/2000/svg">
<path d="M37.3333 0H10.6667C4.776 0 0 4.776 0 10.6667V37.3333C0 43.224 4.776 48 10.6667 48H37.3333C43.224 48 48 43.224 48 37.3333V10.6667C48 4.776 43.224 0 37.3333 0ZM37.4667 17.3707C37.4667 17.6 37.4667 17.8267 37.4667 18.2853C37.4667 26.9707 30.8373 37.0293 18.7227 37.0293C15.0667 37.0293 11.6373 35.8853 8.66667 34.0587C9.12267 34.0587 9.81067 34.0587 10.2667 34.0587C13.2373 34.0587 16.2107 32.9147 18.496 31.3147C15.5253 31.3147 13.24 29.2587 12.3253 26.744C12.7813 26.744 13.24 26.9733 13.4693 26.9733C14.1547 26.9733 14.6133 26.9733 15.2987 26.744C12.328 26.0587 10.0427 23.544 10.0427 20.344C10.9573 20.8 11.872 21.0293 13.0133 21.2587C11.184 19.6587 10.0427 17.8293 10.0427 15.544C10.0427 14.4 10.272 13.2587 10.9573 12.344C14.1573 16.2293 18.9573 18.9733 24.4427 19.2C24.4427 18.744 24.2133 18.2853 24.2133 17.6C24.2133 13.944 27.184 10.9707 30.8427 10.9707C32.672 10.9707 34.4987 11.656 35.6427 13.0267C37.2427 12.7973 38.6133 12.112 39.7573 11.4267C39.3013 13.0267 38.1573 14.1707 36.7867 15.0827C38.1573 14.8533 39.3013 14.6267 40.672 13.9387C39.752 15.3147 38.6107 16.456 37.4667 17.3707Z" fill="currentColor"/>
</svg>
